<mxfile host="65bd71144e">
    <diagram name="TtalKkac 유즈케이스 다이어그램" id="ttalkkac-usecase">
        <mxGraphModel dx="1400" dy="1000" grid="1" gridSize="10" guides="1" tooltips="1" connect="1" arrows="1" fold="1" page="1" pageScale="1" pageWidth="1600" pageHeight="1200" math="0" shadow="0">
            <root>
                <mxCell id="0"/>
                <mxCell id="1" parent="0"/>
                
                <!-- 제목 -->
                <mxCell id="title" value="TtalKkac AI 프로젝트 관리 시스템 - 유즈케이스 다이어그램" style="text;html=1;strokeColor=none;fillColor=none;align=center;verticalAlign=middle;whiteSpace=wrap;rounded=0;fontSize=24;fontStyle=1;fontColor=#1976D2;" parent="1" vertex="1">
                    <mxGeometry x="400" y="20" width="800" height="40" as="geometry"/>
                </mxCell>
                
                <!-- 시스템 경계 -->
                <mxCell id="system-boundary" value="" style="rounded=1;whiteSpace=wrap;html=1;fillColor=#f8f9fa;strokeColor=#1976d2;strokeWidth=3;strokeDashArray=5 5;" parent="1" vertex="1">
                    <mxGeometry x="300" y="100" width="1000" height="900" as="geometry"/>
                </mxCell>
                <mxCell id="system-label" value="TtalKkac AI 프로젝트 관리 시스템" style="text;html=1;strokeColor=none;fillColor=none;align=center;verticalAlign=middle;whiteSpace=wrap;rounded=0;fontSize=18;fontStyle=1;fontColor=#1976d2;" parent="1" vertex="1">
                    <mxGeometry x="700" y="110" width="200" height="30" as="geometry"/>
                </mxCell>
                
                <!-- 액터들 (원형으로 변경) -->
                <!-- 팀 리더 -->
                <mxCell id="team-leader" value="팀 리더" style="ellipse;whiteSpace=wrap;html=1;aspect=fixed;fillColor=#e3f2fd;strokeColor=#1976d2;strokeWidth=2;fontSize=11;fontStyle=1;" parent="1" vertex="1">
                    <mxGeometry x="150" y="200" width="80" height="80" as="geometry"/>
                </mxCell>
                
                <!-- 프로젝트 매니저 -->
                <mxCell id="project-manager" value="프로젝트&#10;매니저" style="ellipse;whiteSpace=wrap;html=1;aspect=fixed;fillColor=#e8f5e8;strokeColor=#388e3c;strokeWidth=2;fontSize=11;fontStyle=1;" parent="1" vertex="1">
                    <mxGeometry x="150" y="350" width="80" height="80" as="geometry"/>
                </mxCell>
                
                <!-- 개발자 -->
                <mxCell id="developer" value="개발자" style="ellipse;whiteSpace=wrap;html=1;aspect=fixed;fillColor=#fff3e0;strokeColor=#f97316;strokeWidth=2;fontSize=11;fontStyle=1;" parent="1" vertex="1">
                    <mxGeometry x="150" y="500" width="80" height="80" as="geometry"/>
                </mxCell>
                
                <!-- 팀원 -->
                <mxCell id="team-member" value="팀원" style="ellipse;whiteSpace=wrap;html=1;aspect=fixed;fillColor=#f3e5f5;strokeColor=#7b1fa2;strokeWidth=2;fontSize=11;fontStyle=1;" parent="1" vertex="1">
                    <mxGeometry x="150" y="650" width="80" height="80" as="geometry"/>
                </mxCell>
                
                <!-- 외부 시스템들 (원형으로 변경) -->
                <!-- AI 엔진 -->
                <mxCell id="ai-engine" value="AI 처리&#10;엔진" style="ellipse;whiteSpace=wrap;html=1;aspect=fixed;fillColor=#ffebee;strokeColor=#d32f2f;strokeWidth=2;fontSize=11;fontStyle=1;" parent="1" vertex="1">
                    <mxGeometry x="1380" y="300" width="80" height="80" as="geometry"/>
                </mxCell>
                
                <!-- 외부 연동 -->
                <mxCell id="external-systems" value="외부 연동&#10;(Slack/Notion/JIRA)" style="ellipse;whiteSpace=wrap;html=1;aspect=fixed;fillColor=#ffebee;strokeColor=#d32f2f;strokeWidth=2;fontSize=11;fontStyle=1;" parent="1" vertex="1">
                    <mxGeometry x="1380" y="500" width="80" height="80" as="geometry"/>
                </mxCell>
                
                <!-- 주요 유즈케이스들 (그룹별로 정리) -->
                
                <!-- 음성 회의 및 AI 분석 -->
                <mxCell id="uc-voice-meeting" value="음성 회의&#10;분석" style="ellipse;whiteSpace=wrap;html=1;fillColor=#e3f2fd;strokeColor=#1976d2;fontSize=12;fontStyle=1;" parent="1" vertex="1">
                    <mxGeometry x="400" y="180" width="140" height="80" as="geometry"/>
                </mxCell>
                
                <!-- 프로젝트 및 업무 관리 -->
                <mxCell id="uc-project-management" value="프로젝트&#10;관리" style="ellipse;whiteSpace=wrap;html=1;fillColor=#e8f5e8;strokeColor=#388e3c;fontSize=12;fontStyle=1;" parent="1" vertex="1">
                    <mxGeometry x="600" y="180" width="140" height="80" as="geometry"/>
                </mxCell>
                
                <mxCell id="uc-task-generation" value="업무 자동&#10;생성" style="ellipse;whiteSpace=wrap;html=1;fillColor=#e8f5e8;strokeColor=#388e3c;fontSize=12;fontStyle=1;" parent="1" vertex="1">
                    <mxGeometry x="800" y="180" width="140" height="80" as="geometry"/>
                </mxCell>
                
                <mxCell id="uc-smart-assignment" value="스마트&#10;업무 배정" style="ellipse;whiteSpace=wrap;html=1;fillColor=#e8f5e8;strokeColor=#388e3c;fontSize=12;fontStyle=1;" parent="1" vertex="1">
                    <mxGeometry x="1000" y="180" width="140" height="80" as="geometry"/>
                </mxCell>
                
                <!-- 업무 실행 및 추적 -->
                <mxCell id="uc-task-execution" value="업무 실행&#10;및 추적" style="ellipse;whiteSpace=wrap;html=1;fillColor=#fff3e0;strokeColor=#f97316;fontSize=12;fontStyle=1;" parent="1" vertex="1">
                    <mxGeometry x="400" y="320" width="140" height="80" as="geometry"/>
                </mxCell>
                
                <mxCell id="uc-progress-update" value="진행 상황&#10;업데이트" style="ellipse;whiteSpace=wrap;html=1;fillColor=#fff3e0;strokeColor=#f97316;fontSize=12;fontStyle=1;" parent="1" vertex="1">
                    <mxGeometry x="600" y="320" width="140" height="80" as="geometry"/>
                </mxCell>
                
                <mxCell id="uc-task-completion" value="업무 완료&#10;처리" style="ellipse;whiteSpace=wrap;html=1;fillColor=#fff3e0;strokeColor=#f97316;fontSize=12;fontStyle=1;" parent="1" vertex="1">
                    <mxGeometry x="800" y="320" width="140" height="80" as="geometry"/>
                </mxCell>
                
                <!-- 모니터링 및 보고 -->
                <mxCell id="uc-dashboard" value="대시보드&#10;조회" style="ellipse;whiteSpace=wrap;html=1;fillColor=#f3e5f5;strokeColor=#7b1fa2;fontSize=12;fontStyle=1;" parent="1" vertex="1">
                    <mxGeometry x="400" y="460" width="140" height="80" as="geometry"/>
                </mxCell>
                
                <mxCell id="uc-progress-monitoring" value="진행률&#10;모니터링" style="ellipse;whiteSpace=wrap;html=1;fillColor=#f3e5f5;strokeColor=#7b1fa2;fontSize=12;fontStyle=1;" parent="1" vertex="1">
                    <mxGeometry x="600" y="460" width="140" height="80" as="geometry"/>
                </mxCell>
                
                <mxCell id="uc-report-generation" value="보고서&#10;생성" style="ellipse;whiteSpace=wrap;html=1;fillColor=#f3e5f5;strokeColor=#7b1fa2;fontSize=12;fontStyle=1;" parent="1" vertex="1">
                    <mxGeometry x="800" y="460" width="140" height="80" as="geometry"/>
                </mxCell>
                
                <!-- 외부 연동 및 알림 -->
                <mxCell id="uc-external-integration" value="외부 서비스&#10;연동" style="ellipse;whiteSpace=wrap;html=1;fillColor=#ffebee;strokeColor=#d32f2f;fontSize=12;fontStyle=1;" parent="1" vertex="1">
                    <mxGeometry x="400" y="600" width="140" height="80" as="geometry"/>
                </mxCell>
                
                <mxCell id="uc-notification" value="실시간&#10;알림" style="ellipse;whiteSpace=wrap;html=1;fillColor=#ffebee;strokeColor=#d32f2f;fontSize=12;fontStyle=1;" parent="1" vertex="1">
                    <mxGeometry x="600" y="600" width="140" height="80" as="geometry"/>
                </mxCell>
                
                <mxCell id="uc-team-communication" value="팀 내&#10;커뮤니케이션" style="ellipse;whiteSpace=wrap;html=1;fillColor=#ffebee;strokeColor=#d32f2f;fontSize=12;fontStyle=1;" parent="1" vertex="1">
                    <mxGeometry x="800" y="600" width="140" height="80" as="geometry"/>
                </mxCell>
                
                <!-- 시스템 관리 -->
                <mxCell id="uc-system-management" value="시스템&#10;관리" style="ellipse;whiteSpace=wrap;html=1;fillColor=#e1f5fe;strokeColor=#0369a1;fontSize=12;fontStyle=1;" parent="1" vertex="1">
                    <mxGeometry x="400" y="740" width="140" height="80" as="geometry"/>
                </mxCell>
                
                <mxCell id="uc-user-management" value="사용자&#10;관리" style="ellipse;whiteSpace=wrap;html=1;fillColor=#e1f5fe;strokeColor=#0369a1;fontSize=12;fontStyle=1;" parent="1" vertex="1">
                    <mxGeometry x="600" y="740" width="140" height="80" as="geometry"/>
                </mxCell>
                
                <mxCell id="uc-oauth-management" value="OAuth&#10;토큰 관리" style="ellipse;whiteSpace=wrap;html=1;fillColor=#e1f5fe;strokeColor=#0369a1;fontSize=12;fontStyle=1;" parent="1" vertex="1">
                    <mxGeometry x="800" y="740" width="140" height="80" as="geometry"/>
                </mxCell>
                
                <!-- 단순화된 관계선들 -->
                
                <!-- 팀 리더 관계 (주요 관계만) -->
                <mxCell id="rel-leader-voice" value="" style="endArrow=none;html=1;strokeColor=#1976d2;strokeWidth=2;" parent="1" source="team-leader" target="uc-voice-meeting" edge="1">
                    <mxGeometry relative="1" as="geometry"/>
                </mxCell>
                <mxCell id="rel-leader-project" value="" style="endArrow=none;html=1;strokeColor=#1976d2;strokeWidth=2;" parent="1" source="team-leader" target="uc-project-management" edge="1">
                    <mxGeometry relative="1" as="geometry"/>
                </mxCell>
                <mxCell id="rel-leader-dashboard" value="" style="endArrow=none;html=1;strokeColor=#1976d2;strokeWidth=2;" parent="1" source="team-leader" target="uc-dashboard" edge="1">
                    <mxGeometry relative="1" as="geometry"/>
                </mxCell>
                <mxCell id="rel-leader-user-mgmt" value="" style="endArrow=none;html=1;strokeColor=#1976d2;strokeWidth=2;" parent="1" source="team-leader" target="uc-user-management" edge="1">
                    <mxGeometry relative="1" as="geometry"/>
                </mxCell>
                
                <!-- 프로젝트 매니저 관계 -->
                <mxCell id="rel-pm-task-gen" value="" style="endArrow=none;html=1;strokeColor=#388e3c;strokeWidth=2;" parent="1" source="project-manager" target="uc-task-generation" edge="1">
                    <mxGeometry relative="1" as="geometry"/>
                </mxCell>
                <mxCell id="rel-pm-assignment" value="" style="endArrow=none;html=1;strokeColor=#388e3c;strokeWidth=2;" parent="1" source="project-manager" target="uc-smart-assignment" edge="1">
                    <mxGeometry relative="1" as="geometry"/>
                </mxCell>
                <mxCell id="rel-pm-monitoring" value="" style="endArrow=none;html=1;strokeColor=#388e3c;strokeWidth=2;" parent="1" source="project-manager" target="uc-progress-monitoring" edge="1">
                    <mxGeometry relative="1" as="geometry"/>
                </mxCell>
                <mxCell id="rel-pm-system" value="" style="endArrow=none;html=1;strokeColor=#388e3c;strokeWidth=2;" parent="1" source="project-manager" target="uc-system-management" edge="1">
                    <mxGeometry relative="1" as="geometry"/>
                </mxCell>
                
                <!-- 개발자 관계 -->
                <mxCell id="rel-dev-execution" value="" style="endArrow=none;html=1;strokeColor=#f97316;strokeWidth=2;" parent="1" source="developer" target="uc-task-execution" edge="1">
                    <mxGeometry relative="1" as="geometry"/>
                </mxCell>
                <mxCell id="rel-dev-update" value="" style="endArrow=none;html=1;strokeColor=#f97316;strokeWidth=2;" parent="1" source="developer" target="uc-progress-update" edge="1">
                    <mxGeometry relative="1" as="geometry"/>
                </mxCell>
                <mxCell id="rel-dev-completion" value="" style="endArrow=none;html=1;strokeColor=#f97316;strokeWidth=2;" parent="1" source="developer" target="uc-task-completion" edge="1">
                    <mxGeometry relative="1" as="geometry"/>
                </mxCell>
                <mxCell id="rel-dev-notification" value="" style="endArrow=none;html=1;strokeColor=#f97316;strokeWidth=2;" parent="1" source="developer" target="uc-notification" edge="1">
                    <mxGeometry relative="1" as="geometry"/>
                </mxCell>
                
                <!-- 팀원 관계 -->
                <mxCell id="rel-member-execution" value="" style="endArrow=none;html=1;strokeColor=#7b1fa2;strokeWidth=2;" parent="1" source="team-member" target="uc-task-execution" edge="1">
                    <mxGeometry relative="1" as="geometry"/>
                </mxCell>
                <mxCell id="rel-member-update" value="" style="endArrow=none;html=1;strokeColor=#7b1fa2;strokeWidth=2;" parent="1" source="team-member" target="uc-progress-update" edge="1">
                    <mxGeometry relative="1" as="geometry"/>
                </mxCell>
                <mxCell id="rel-member-communication" value="" style="endArrow=none;html=1;strokeColor=#7b1fa2;strokeWidth=2;" parent="1" source="team-member" target="uc-team-communication" edge="1">
                    <mxGeometry relative="1" as="geometry"/>
                </mxCell>
                
                <!-- AI 엔진 관계 -->
                <mxCell id="rel-ai-voice" value="" style="endArrow=none;html=1;strokeColor=#d32f2f;strokeWidth=2;" parent="1" source="ai-engine" target="uc-voice-meeting" edge="1">
                    <mxGeometry relative="1" as="geometry"/>
                </mxCell>
                <mxCell id="rel-ai-task-gen" value="" style="endArrow=none;html=1;strokeColor=#d32f2f;strokeWidth=2;" parent="1" source="ai-engine" target="uc-task-generation" edge="1">
                    <mxGeometry relative="1" as="geometry"/>
                </mxCell>
                <mxCell id="rel-ai-assignment" value="" style="endArrow=none;html=1;strokeColor=#d32f2f;strokeWidth=2;" parent="1" source="ai-engine" target="uc-smart-assignment" edge="1">
                    <mxGeometry relative="1" as="geometry"/>
                </mxCell>
                
                <!-- 외부 시스템 관계 -->
                <mxCell id="rel-external-integration" value="" style="endArrow=none;html=1;strokeColor=#d32f2f;strokeWidth=2;" parent="1" source="external-systems" target="uc-external-integration" edge="1">
                    <mxGeometry relative="1" as="geometry"/>
                </mxCell>
                <mxCell id="rel-external-notification" value="" style="endArrow=none;html=1;strokeColor=#d32f2f;strokeWidth=2;" parent="1" source="external-systems" target="uc-notification" edge="1">
                    <mxGeometry relative="1" as="geometry"/>
                </mxCell>
                <mxCell id="rel-external-oauth" value="" style="endArrow=none;html=1;strokeColor=#d32f2f;strokeWidth=2;" parent="1" source="external-systems" target="uc-oauth-management" edge="1">
                    <mxGeometry relative="1" as="geometry"/>
                </mxCell>
                
                <!-- 핵심 워크플로우 Include 관계 (최소화) -->
                <mxCell id="include-voice-task" value="&lt;&lt;include&gt;&gt;" style="endArrow=open;endSize=12;dashed=1;html=1;strokeColor=#666666;" parent="1" source="uc-voice-meeting" target="uc-task-generation" edge="1">
                    <mxGeometry relative="1" as="geometry"/>
                </mxCell>
                
                <mxCell id="include-task-assignment" value="&lt;&lt;include&gt;&gt;" style="endArrow=open;endSize=12;dashed=1;html=1;strokeColor=#666666;" parent="1" source="uc-task-generation" target="uc-smart-assignment" edge="1">
                    <mxGeometry relative="1" as="geometry"/>
                </mxCell>
                
                <!-- 범례 (단순화) -->
                <mxCell id="legend-box" value="" style="rounded=1;whiteSpace=wrap;html=1;fillColor=#f8f9fa;strokeColor=#666666;strokeWidth=1;" parent="1" vertex="1">
                    <mxGeometry x="50" y="1050" width="350" height="120" as="geometry"/>
                </mxCell>
                <mxCell id="legend-title" value="범례 (Legend)" style="text;html=1;strokeColor=none;fillColor=none;align=center;verticalAlign=middle;whiteSpace=wrap;rounded=0;fontSize=14;fontStyle=1;" parent="1" vertex="1">
                    <mxGeometry x="175" y="1060" width="100" height="20" as="geometry"/>
                </mxCell>
                
                <!-- 범례 내용 -->
                <mxCell id="legend-user-actor" value="" style="ellipse;whiteSpace=wrap;html=1;aspect=fixed;fillColor=#e3f2fd;strokeColor=#1976d2;strokeWidth=1;" parent="1" vertex="1">
                    <mxGeometry x="70" y="1090" width="20" height="20" as="geometry"/>
                </mxCell>
                <mxCell id="legend-user-text" value="사용자 액터" style="text;html=1;strokeColor=none;fillColor=none;align=left;verticalAlign=middle;whiteSpace=wrap;rounded=0;fontSize=10;" parent="1" vertex="1">
                    <mxGeometry x="100" y="1090" width="80" height="20" as="geometry"/>
                </mxCell>
                
                <mxCell id="legend-system-actor" value="" style="ellipse;whiteSpace=wrap;html=1;aspect=fixed;fillColor=#ffebee;strokeColor=#d32f2f;strokeWidth=1;" parent="1" vertex="1">
                    <mxGeometry x="200" y="1090" width="20" height="20" as="geometry"/>
                </mxCell>
                <mxCell id="legend-system-text" value="외부 시스템" style="text;html=1;strokeColor=none;fillColor=none;align=left;verticalAlign=middle;whiteSpace=wrap;rounded=0;fontSize=10;" parent="1" vertex="1">
                    <mxGeometry x="230" y="1090" width="80" height="20" as="geometry"/>
                </mxCell>
                
                <mxCell id="legend-usecase" value="" style="ellipse;whiteSpace=wrap;html=1;fillColor=#e8f5e8;strokeColor=#388e3c;" parent="1" vertex="1">
                    <mxGeometry x="70" y="1120" width="30" height="15" as="geometry"/>
                </mxCell>
                <mxCell id="legend-usecase-text" value="유즈케이스" style="text;html=1;strokeColor=none;fillColor=none;align=left;verticalAlign=middle;whiteSpace=wrap;rounded=0;fontSize=10;" parent="1" vertex="1">
                    <mxGeometry x="110" y="1120" width="70" height="15" as="geometry"/>
                </mxCell>
                
                <mxCell id="legend-association" value="" style="endArrow=none;html=1;strokeColor=#333333;strokeWidth=1;" parent="1" edge="1">
                    <mxGeometry relative="1" as="geometry">
                        <mxPoint x="200" y="1127" as="sourcePoint"/>
                        <mxPoint x="220" y="1127" as="targetPoint"/>
                    </mxGeometry>
                </mxCell>
                <mxCell id="legend-association-text" value="연관 관계" style="text;html=1;strokeColor=none;fillColor=none;align=left;verticalAlign=middle;whiteSpace=wrap;rounded=0;fontSize=10;" parent="1" vertex="1">
                    <mxGeometry x="230" y="1120" width="70" height="15" as="geometry"/>
                </mxCell>
                
                <mxCell id="legend-include" value="" style="endArrow=open;endSize=8;dashed=1;html=1;strokeColor=#666666;" parent="1" edge="1">
                    <mxGeometry relative="1" as="geometry">
                        <mxPoint x="320" y="1127" as="sourcePoint"/>
                        <mxPoint x="340" y="1127" as="targetPoint"/>
                    </mxGeometry>
                </mxCell>
                <mxCell id="legend-include-text" value="포함 관계" style="text;html=1;strokeColor=none;fillColor=none;align=left;verticalAlign=middle;whiteSpace=wrap;rounded=0;fontSize=10;" parent="1" vertex="1">
                    <mxGeometry x="350" y="1120" width="70" height="15" as="geometry"/>
                </mxCell>
                
            </root>
        </mxGraphModel>
    </diagram>
</mxfile> 